<svg width="1368" height="576" viewBox="0 0 1368 576" fill="none" xmlns="http://www.w3.org/2000/svg">
<path d="M1368 311.678V340.313L1364.44 342.515H1143.86C1151.65 412.12 1256.27 421.591 1282.08 359.256H1363.33C1364.44 360.137 1364.66 360.137 1364.44 361.458C1364.44 366.084 1359.54 377.538 1357.54 382.164C1301.23 514.324 1063.96 487.672 1061.51 329.079C1058.84 141.411 1352.64 136.785 1366.89 309.035L1368 311.678ZM1281.42 291.634C1270.51 255.73 1229.11 245.157 1194.83 251.985C1160.56 258.814 1155.66 270.928 1147.87 291.634H1281.42Z" fill="#ECE0D0"/>
<path d="M1057.28 88.7668V151.103H1006.53C1002.97 151.103 994.508 154.186 991.838 156.609C989.167 159.032 985.828 164.979 985.828 167.623V193.614H1048.82V252.866H985.828V456.834H905.7V283.043C905.7 281.501 909.929 274.232 911.264 272.69C919.277 262.118 936.638 256.611 949.548 257.272V253.087H867.416V193.834H905.922V162.557C905.922 152.204 914.825 130.177 921.057 121.587C950.66 80.6169 1013.43 90.3087 1057.5 89.2073L1057.28 88.7668Z" fill="#ECE0D0"/>
<path d="M716.732 88.7668V455.072L714.951 456.614H635.49V88.7668H716.732Z" fill="#ECE0D0"/>
<path d="M834.029 193.394H753.9V456.614H834.029V193.394Z" fill="#ECE0D0"/>
<path d="M789.96 84.8024C821.566 81.0579 846.718 101.983 839.818 134.142C831.36 174.011 768.147 175.773 756.573 137.006C744.999 98.2387 763.918 87.6659 789.737 84.5821L789.96 84.8024Z" fill="#ECE0D0"/>
<path d="M545.542 191.192H299.369C224.362 312.557 149.349 433.931 75.2318 555.956C73.8963 558.158 63.2125 575.119 63.8802 576L545.542 191.413V191.192Z" fill="#ECE0D0"/>
<path d="M375.714 0H128.651L0 207.492L106.393 292.516H192.754C196.76 292.516 200.767 283.705 203.215 279.96C260.195 191.633 316.508 99.3407 370.817 9.47152C371.707 8.14991 376.604 0.66081 375.714 0Z" fill="#ECE0D0"/>
</svg>
