<svg width="463" height="464" viewBox="0 0 463 464" fill="none" xmlns="http://www.w3.org/2000/svg">
<path d="M73.8 0.199997L387.4 0C426.5 0.3 459.7 30.8 463 69.8V393.7C460 431.6 428.3 461.8 390.3 463.5H72.7C34 461.6 2.2 430.6 0 391.8V72.2C2.1 32.8 34.4 1.3 73.8 0.199997Z" fill="#ECE0D0"/>
<path d="M286.001 110.4C286.401 110.7 284.201 114.1 283.801 114.7C259.301 155.6 234.101 197.4 208.501 237.5C207.401 239.2 205.601 243.1 203.801 243.3H165.001C165.001 243.2 117.201 204.6 117.201 204.6L175.001 110.4H286.101H286.001Z" fill="#412E28"/>
<path d="M362.2 197.2L145.8 371.8C145.5 371.4 150.3 363.7 150.9 362.7C184.2 307.4 217.9 252.2 251.6 197.1H362.2V197.2Z" fill="#412E28"/>
</svg>
