<svg width="463" height="464" viewBox="0 0 463 464" fill="none" xmlns="http://www.w3.org/2000/svg">
<path d="M73.8 0.199997L387.4 0C426.5 0.3 459.7 30.8 463 69.8V393.7C460 431.6 428.3 461.8 390.3 463.5H72.7C34 461.6 2.2 430.6 0 391.8V72.2C2.1 32.8 34.4 1.3 73.8 0.199997Z" fill="#412E28"/>
<path d="M286.001 111.8C286.401 112.1 284.201 115.5 283.801 116.1C259.301 157 234.101 198.8 208.501 238.9C207.401 240.6 205.601 244.5 203.801 244.7H165.001C165.001 244.6 117.201 206 117.201 206L175.001 111.8H286.101H286.001Z" fill="#ECE0D0"/>
<path d="M362.201 198.6L145.801 373.2C145.501 372.8 150.301 365.1 150.901 364.1C184.201 308.8 217.901 253.6 251.601 198.5H362.201V198.6Z" fill="#ECE0D0"/>
</svg>
